<?xml version="1.0" standalone="no"?>
<!DOCTYPE svg PUBLIC "-//W3C//DTD SVG 20010904//EN"
 "http://www.w3.org/TR/2001/REC-SVG-20010904/DTD/svg10.dtd">
<svg version="1.0" xmlns="http://www.w3.org/2000/svg"
 width="512.000000pt" height="512.000000pt" viewBox="0 0 512.000000 512.000000"
 preserveAspectRatio="xMidYMid meet">
<metadata>
Created by potrace 1.11, written by Peter Selinger 2001-2013
</metadata>
<g transform="translate(0.000000,512.000000) scale(0.100000,-0.100000)"
fill="#000000" stroke="none">
<path d="M1690 5112 c-70 -33 -94 -74 -104 -172 -4 -36 -9 -83 -11 -105 -19
-186 -14 -223 32 -267 60 -56 145 -57 206 -3 45 40 48 56 72 351 8 89 -8 138
-55 173 -30 22 -114 36 -140 23z"/>
<path d="M3610 5113 c-21 -3 -68 -11 -168 -29 -53 -10 -213 -69 -287 -106
-205 -103 -156 -57 -1540 -1439 -796 -796 -1311 -1317 -1344 -1363 -117 -159
-200 -342 -242 -536 -18 -82 -23 -138 -23 -255 -1 -139 6 -240 18 -275 3 -8 7
-28 10 -45 7 -42 40 -149 66 -215 174 -438 600 -771 1070 -837 111 -15 356 -9
450 12 14 3 37 7 51 10 14 2 67 19 119 36 152 50 300 130 420 226 52 42 1120
1105 2131 2120 251 252 481 491 512 532 124 165 217 389 252 605 12 80 13 355
1 406 -3 14 -9 41 -12 60 -3 19 -15 67 -25 105 -105 375 -374 695 -724 861
-116 55 -230 91 -380 120 -35 6 -318 12 -355 7z m324 -800 c171 -54 317 -195
376 -366 27 -78 37 -215 21 -299 -7 -35 -31 -101 -53 -148 -38 -79 -54 -99
-247 -293 -192 -194 -206 -207 -215 -185 -104 258 -253 454 -475 621 -68 51
-259 154 -320 172 -22 7 -10 21 155 187 187 188 265 254 343 289 118 53 288
62 415 22z m-1259 -1204 c133 -31 282 -136 356 -251 126 -196 122 -454 -9
-645 -108 -157 -265 -242 -461 -248 -168 -5 -308 51 -425 169 -122 121 -177
261 -171 433 6 158 55 273 165 383 146 147 346 205 545 159z m-1325 -1114 c65
-143 166 -282 285 -395 85 -80 88 -83 115 -102 14 -10 45 -32 70 -49 55 -39
188 -110 253 -134 l49 -18 -204 -204 c-112 -113 -230 -223 -262 -246 -241
-165 -571 -123 -768 98 -45 50 -103 156 -118 215 -20 76 -21 82 -22 175 -1 69
4 108 22 160 42 129 71 167 304 403 206 207 221 221 230 200 5 -13 26 -59 46
-103z"/>
<path d="M602 4643 c-35 -7 -90 -68 -98 -108 -14 -77 -1 -102 129 -232 130
-132 159 -150 230 -139 77 12 128 79 122 159 -4 51 -21 74 -143 195 -125 124
-157 141 -240 125z"/>
<path d="M378 3555 c-2 -2 -41 -6 -88 -10 -197 -15 -237 -29 -271 -96 -40 -80
-12 -161 72 -205 32 -16 64 -16 224 0 196 20 197 20 237 61 48 48 56 117 20
179 -29 49 -65 69 -131 71 -33 2 -61 1 -63 0z"/>
<path d="M4887 1884 c-1 -1 -38 -5 -82 -9 -181 -14 -195 -18 -237 -60 -65 -65
-53 -171 25 -229 31 -23 81 -26 234 -13 87 8 106 10 179 22 59 10 114 83 114
152 0 42 -36 97 -79 121 -31 18 -54 23 -96 21 -30 -1 -56 -3 -58 -5z"/>
<path d="M4209 940 c-71 -38 -97 -140 -53 -207 36 -56 233 -241 268 -253 121
-39 230 77 185 197 -14 37 -225 251 -266 269 -44 19 -91 17 -134 -6z"/>
<path d="M3363 587 c-70 -26 -101 -72 -109 -162 -2 -27 -6 -70 -9 -95 -18
-183 -17 -206 3 -246 38 -74 134 -103 206 -62 48 28 73 75 80 148 3 30 8 93
13 140 12 141 9 183 -16 218 -39 55 -111 80 -168 59z"/>
</g>
</svg>
